<svg xmlns="http://www.w3.org/2000/svg" viewBox="0 0 752.68 211.36"><defs><style>.cls-1{fill:#03364b;}.cls-2{fill:#019c86;}.cls-2,.cls-3,.cls-4,.cls-5,.cls-6{opacity:0.8;}.cls-3{fill:#957d94;}.cls-4{fill:#dc3e87;}.cls-5{fill:#973a4f;}.cls-6{fill:#faa71b;}</style></defs><title>logo</title><g id="_Layer_" data-name="&lt;Layer&gt;"><path class="cls-1" d="M9.1,4.06,35.62,4,36,116l18.52-.06L54.3,48.37,81,48.28l.49,139-26.67.1-.19-52.45L36.08,135l.19,52.44-26.52.1Z" transform="translate(-9.1 -3.97)"/><path class="cls-2" d="M96.05,167.77c-.07-21.33,19-28.07,35.15-33.75l0-8.6c0-4.44-1.07-7.55-5.07-7.53s-5.17,3-5.31,6.83l-.57,6.22-22.52-.8c.82-20.6,10.56-30.12,30.56-30.19,17.34-.06,26,10.58,26,25.69l.14,40c0,10.67.8,17.18,1.56,21.33l-21.63.08c-.61-4.59-1.67-11.11-2-12.15-2,7.12-7.36,13.66-16.4,13.69C102.94,188.64,96.09,177.85,96.05,167.77Zm35.27.17-.09-23.4c-8,4.62-13.44,9.82-13.41,18.42,0,5.77,2.55,9.32,6.7,9.31C127.48,172.26,129.69,170.17,131.32,167.94Z" transform="translate(-9.1 -3.97)"/><path class="cls-3" d="M193,180.32l0,6.52-24.15.08L168.3,26.76l24.15-.09.29,80.76c5.91-5.21,12.56-7.75,18.64-7.77,13,0,18.41,11.19,18.46,25.12l.13,36.89c.06,16-6.43,26.54-18.58,26.59C205,188.28,198.64,185.19,193,180.32Zm12.82-17.23-.14-40c0-4.89-1.66-8.89-6-8.87a11.18,11.18,0,0,0-7,2.84l.19,53.33a11.74,11.74,0,0,0,6.68,2.35C204.23,172.73,205.84,168.42,205.82,163.09Z" transform="translate(-9.1 -3.97)"/><path class="cls-4" d="M243.42,69.76l24.3-.08.06,16.74-24.3.09Zm.26,31.26,24.15-.08.4,114.3-24.14.08Z" transform="translate(-9.1 -3.97)"/><path class="cls-5" d="M285.53,163.25l-.16-46.52-8.3,0L277,100.91l8.29,0-.09-26.08,24.45-.08.09,26.07,12.15,0,0,15.85-12.14,0,.15,44.15c0,4.89,3.14,7,7.58,6.94a39.77,39.77,0,0,0,6.52-.61l.07,19a99.74,99.74,0,0,1-14.52,1.24C290.21,187.39,285.59,178.66,285.53,163.25Z" transform="translate(-9.1 -3.97)"/><path class="cls-6" d="M333.25,166.94c-.07-21.34,19-28.07,35.15-33.76l0-8.59c0-4.45-1.07-7.56-5.07-7.54-4.15,0-5.17,3-5.31,6.83l-.57,6.23-22.52-.81c.81-20.6,10.56-30.12,30.56-30.19,17.33-.06,26,10.58,26,25.69l.14,40c0,10.67.8,17.19,1.56,21.33l-21.63.08c-.61-4.59-1.67-11.11-2-12.14-2.05,7.12-7.36,13.65-16.4,13.69C340.14,187.8,333.29,177,333.25,166.94Zm35.27.17-.09-23.41c-8,4.62-13.44,9.82-13.41,18.42,0,5.78,2.55,9.32,6.7,9.31C364.68,171.42,366.89,169.34,368.52,167.11Z" transform="translate(-9.1 -3.97)"/><path class="cls-1" d="M430.19,179.48l0,6.52-24.15.09-.43-119.8,24.15-.09.15,40.39c5.9-5.21,12.56-7.75,18.64-7.77,13,0,18.41,11.19,18.46,25.12l.13,36.89c.05,16-6.43,26.55-18.58,26.59C442.22,187.44,435.84,184.35,430.19,179.48ZM443,162.25l-.14-40c0-4.89-1.66-8.89-6-8.87a11.17,11.17,0,0,0-6.95,2.84l.19,53.34a11.8,11.8,0,0,0,6.67,2.34C441.43,171.89,443,167.58,443,162.25Z" transform="translate(-9.1 -3.97)"/><path class="cls-1" d="M480.08,167.31l-.24-67.12L504,100.1l.23,64.3c0,4.15,1.36,6.52,5.06,6.51,2.07,0,4.44-1.2,7.1-2.7l-.24-68.15,24-.08.31,85.63-24,.09,0-7.86c-6.21,5.8-13,9.38-20.27,9.41C485.63,187.29,480.12,178.71,480.08,167.31Z" transform="translate(-9.1 -3.97)"/><path class="cls-1" d="M554.29,160.67l-.13-35.41c-.06-15.85,6.57-26.84,19.76-26.88a25.59,25.59,0,0,1,16.91,6.75l-.14-39.7,24.15-.09.43,120-24.15.08,0-6.66C585.78,184,580,187,574.23,187,561.49,187,554.35,178.15,554.29,160.67Zm36.77,8.61-.19-54.07a14.58,14.58,0,0,0-6.23-1.91c-4.45,0-6.21,4.17-6.19,9.36l.14,39.41c0,5.33,1.66,9.47,6.11,9.46A13.2,13.2,0,0,0,591.06,169.28Z" transform="translate(-9.1 -3.97)"/><path class="cls-1" d="M628.81,160.41,628.68,125c0-15.85,6.57-26.84,19.76-26.89a25.65,25.65,0,0,1,16.91,6.76l-.14-39.71,24.15-.08.43,120-24.15.09,0-6.67c-5.31,5.21-11.08,8.19-16.86,8.21C636,186.76,628.87,177.89,628.81,160.41ZM665.58,169l-.19-54.08a14.38,14.38,0,0,0-6.23-1.9c-4.44,0-6.21,4.17-6.19,9.35l.14,39.41c0,5.34,1.66,9.48,6.11,9.47A13.17,13.17,0,0,0,665.58,169Z" transform="translate(-9.1 -3.97)"/><path class="cls-1" d="M707.15,193.17c9,0,13.77-1.53,13.75-7.31,0-3.26-1.36-8.29-3.16-14.36l-20.4-72.08L720,99.34l11,49.45,8-49.52,22.81-.08L742.39,187c-3.94,17.8-14.59,22.87-29.7,22.92l-5.48,0Z" transform="translate(-9.1 -3.97)"/></g></svg>